<svg width="96" height="96" viewBox="0 0 96 96" fill="none" xmlns="http://www.w3.org/2000/svg" role="img" aria-label="SketchCatch logo">
  <rect x="14" y="12" width="46" height="58" rx="10" fill="#F7FBFF" stroke="#173A52" stroke-width="5"/>
  <path d="M24 25H35V36H24V25Z" fill="#F7FBFF" stroke="#173A52" stroke-width="3"/>
  <path d="M39 31H50" stroke="#173A52" stroke-width="3" stroke-linecap="round"/>
  <path d="M47 26L52 31L47 36" stroke="#173A52" stroke-width="3" stroke-linecap="round" stroke-linejoin="round"/>
  <path d="M30 42V54" stroke="#173A52" stroke-width="3" stroke-linecap="round"/>
  <path d="M25 50L30 55L35 50" stroke="#173A52" stroke-width="3" stroke-linecap="round" stroke-linejoin="round"/>
  <rect x="24" y="58" width="14" height="14" rx="3" fill="#21C7D9"/>
  <path d="M27 69L37 59" stroke="#F7FBFF" stroke-width="2" stroke-linecap="round"/>
  <path d="M26 63L31 58" stroke="#F7FBFF" stroke-width="2" stroke-linecap="round"/>
  <path d="M34 72L38 68" stroke="#F7FBFF" stroke-width="2" stroke-linecap="round"/>
  <path d="M54 37C58 30 66 27 74 30C81 33 85 39 85 47C91 48 94 53 94 59C94 66 89 71 82 71H54" fill="#EAF7FC"/>
  <path d="M54 37C58 30 66 27 74 30C81 33 85 39 85 47C91 48 94 53 94 59C94 66 89 71 82 71H54" stroke="#1677D2" stroke-width="5" stroke-linecap="round" stroke-linejoin="round"/>
  <path d="M48 53C58 58 58 74 39 84C53 81 65 71 66 57C66 50 57 48 48 53Z" fill="#21C7D9"/>
  <path d="M48 53C58 58 58 74 39 84C53 81 65 71 66 57C66 50 57 48 48 53Z" stroke="#21C7D9" stroke-width="2" stroke-linejoin="round"/>
  <rect x="61" y="31" width="6" height="6" rx="1" fill="#21C7D9"/>
  <rect x="70" y="40" width="7" height="7" rx="1" fill="#1677D2"/>
  <rect x="58" y="45" width="6" height="6" rx="1" fill="#21C7D9"/>
</svg>
